<?xml version="1.0" encoding="utf-8"?>
<!-- Generator: Adobe Illustrator 16.0.0, SVG Export Plug-In . SVG Version: 6.00 Build 0)  -->
<!DOCTYPE svg PUBLIC "-//W3C//DTD SVG 1.1//EN" "http://www.w3.org/Graphics/SVG/1.1/DTD/svg11.dtd">
<svg version="1.1" id="레이어_1" xmlns="http://www.w3.org/2000/svg" xmlns:xlink="http://www.w3.org/1999/xlink" x="0px"
	 y="0px" width="1984.252px" height="595.281px" viewBox="-16.917 0 1984.252 595.281"
	 enable-background="new -16.917 0 1984.252 595.281" xml:space="preserve">
<g>
	<g>
		<path fill="#0C72B4" d="M53.422,410.017c-1.703-0.66-2.549-2.582-1.891-4.283l8.623-22.303c0.314-0.813,0.942-1.472,1.746-1.837
			c0.794-0.346,1.702-0.373,2.525-0.063l89.823,34.729L38.706,300.718c-1.29-1.288-1.29-3.381,0-4.67l16.916-16.917
			c1.237-1.24,3.432-1.24,4.672,0l115.555,115.55l-34.734-89.829c-0.315-0.822-0.293-1.727,0.062-2.53
			c0.352-0.804,1.012-1.427,1.829-1.741l22.315-8.628c1.695-0.664,3.615,0.19,4.273,1.892l29.903,77.337V151.435H-16.917v292.412
			h157.818L53.422,410.017z"/>
		<path fill="#0C72B4" d="M390.999,410.017c1.704-0.66,2.549-2.582,1.89-4.283l-8.622-22.303c-0.315-0.813-0.941-1.472-1.744-1.837
			c-0.796-0.346-1.704-0.373-2.527-0.063l-89.823,34.729l115.541-115.543c1.291-1.288,1.291-3.381,0-4.67L388.8,279.13
			c-1.239-1.24-3.433-1.24-4.67,0l-115.558,115.55l34.735-89.829c0.316-0.822,0.294-1.727-0.063-2.53
			c-0.351-0.804-1.012-1.427-1.828-1.741l-22.315-8.628c-1.693-0.664-3.612,0.19-4.271,1.892l-29.903,77.337V151.435h216.412
			v292.412H303.521L390.999,410.017z"/>
	</g>
	<g>
		<g>
			<path fill="#0C72B4" d="M686.477,217.515h-25.112c7.97,11.162,11.958,24.516,11.958,40.06c0,20.932-6.674,37.427-20.03,49.485
				c-13.354,12.066-30.901,18.09-52.621,18.09c-21.729,0-39.32-6.025-52.775-18.09c-13.449-12.059-20.181-28.553-20.181-49.485
				c0-15.544,3.986-28.897,11.964-40.06h-26.614v-31.393h63.388v-34.687h48.136v34.687h61.889V217.515L686.477,217.515z
				 M763.917,436.084H590.202c-14.951,0-22.419-6.893-22.419-20.648v-69.061h48.135v50.53c0,4.982,2.889,7.479,8.671,7.479h139.328
				V436.084L763.917,436.084z M629.073,257.574c0-10.359-2.593-18.686-7.774-24.963c-5.184-6.284-12.064-9.42-20.63-9.42
				c-8.576,0-15.448,3.136-20.631,9.42c-5.187,6.277-7.773,14.604-7.773,24.963c0,10.572,2.587,18.988,7.773,25.268
				c5.183,6.277,12.055,9.42,20.631,9.42c8.374,0,15.194-3.143,20.479-9.42C626.428,276.563,629.073,268.146,629.073,257.574z
				 M800.693,274.32h-46.344v87.598h-48.14V160.701h48.14v82.227h46.344V274.32z"/>
			<path fill="#0C72B4" d="M981.884,296.745H859.291c-18.13,0-27.209-8.866-27.209-26.612V163.691h48.133v35.284h53.524v-35.284
				h48.146V296.745L981.884,296.745z M1081.446,413.939l-12.568,29.01c-18.727-2.005-37.052-7.273-54.99-15.852
				c-19.138-8.952-32.7-19.434-40.684-31.388c-6.974,12.359-19.663,22.878-38.12,31.541c-18.427,8.683-38.905,14.206-61.432,16.596
				l-12.269-29.31c43.071-5.976,69.974-20.523,80.744-43.645h-72.06v-30.797h77.439v-27.503h48.139v27.503h77.732v30.797h-71.464
				C1014.268,393.81,1040.783,408.157,1081.446,413.939z M933.739,265.949V229.47H880.22v27.804c0,5.787,3.09,8.673,9.277,8.673
				h44.241V265.949z M1068.877,317.672h-48.128V160.701h48.128V317.672z"/>
			<path fill="#0C72B4" d="M1256.345,367.904c-21.529,5.979-48.236,8.968-80.124,8.968c-8.984,0-16.662-0.399-23.022-1.199
				c-9.385-0.992-16.001-3.985-19.898-8.969c-3.881-4.976-5.824-13.051-5.824-24.211v-93.29h68.172v-44.547
				c0-5.581-2.496-8.372-7.481-8.372h-58.603V164.89h90.891c13.351,0,19.627,6.682,18.835,20.036l-4.474,95.376h-63.1v52.917
				c0,5.584,3.393,8.673,10.174,9.274c5.373,0.798,11.369,1.199,17.941,1.199c17.15,0,34.389-1.798,51.73-5.387L1256.345,367.904z
				 M1317.628,436.981h-40.953V280.597h-31.403v-31.695h31.403v-88.201h40.953V436.981z M1377.126,440.263h-42.452V160.704h42.452
				V440.263z"/>
			<path fill="#0C72B4" d="M1588.825,246.813c0,26.116-7.983,46.791-23.914,62.042c-15.961,15.243-37.292,22.867-63.995,22.867
				c-26.711,0-48.037-7.624-63.972-22.867c-15.961-15.251-23.938-35.926-23.938-62.042c0-25.907,8.021-46.541,24.086-61.887
				c16.038-15.349,37.309-23.023,63.823-23.023c26.707,0,48.041,7.618,63.995,22.873
				C1580.848,200.021,1588.825,220.703,1588.825,246.813z M1541.572,246.813c0-14.95-3.729-26.708-11.2-35.282
				c-7.485-8.567-17.295-12.853-29.456-12.853c-12.157,0-21.978,4.285-29.439,12.853c-7.488,8.574-11.221,20.332-11.221,35.282
				c0,14.95,3.732,26.71,11.221,35.278c7.462,8.578,17.282,12.86,29.439,12.86c12.161,0,21.971-4.282,29.456-12.86
				C1537.843,273.523,1541.572,261.762,1541.572,246.813z M1666.857,440.263h-48.148V160.704h48.148V440.263z"/>
			<path fill="#0C72B4" d="M1891.101,344.885l-21.829,27.211c-13.351-6.381-26.855-17.194-40.505-32.442
				c-13.653-15.252-22.779-29.645-27.367-43.208c-3.989,13.957-12.505,28.606-25.563,43.957
				c-13.047,15.343-27.363,27.311-42.896,35.882l-23.035-26.912c25.319-17.142,42.856-36.872,52.622-59.204
				c8.577-19.528,12.868-45.543,12.868-78.037v-15.543h-54.414v-31.393h158.153v31.393h-54.721v15.543
				c0,30.499,4.989,56.112,14.953,76.843C1849.925,310.699,1867.183,329.33,1891.101,344.885z M1967.334,440.263h-47.829V271.328
				h-58.615v-31.394h58.615v-79.23h47.829V440.263z"/>
		</g>
	</g>
</g>
</svg>
